<?xml version="1.0" ?><svg enable-background="new 0 0 512 512" id="Layer_1" version="1.1" viewBox="0 0 512 512" xml:space="preserve" xmlns="http://www.w3.org/2000/svg" xmlns:xlink="http://www.w3.org/1999/xlink"><g><g><linearGradient gradientUnits="userSpaceOnUse" id="SVGID_1_" x1="-0.0000027" x2="512" y1="256" y2="256"><stop offset="0" style="stop-color:#33B49D"/><stop offset="1" style="stop-color:#00A185"/></linearGradient><circle cx="256" cy="256" fill="url(#SVGID_1_)" r="256"/><linearGradient gradientUnits="userSpaceOnUse" id="SVGID_2_" x1="42.6666641" x2="469.3333435" y1="256.0005188" y2="256.0005188"><stop offset="0" style="stop-color:#00A185"/><stop offset="1" style="stop-color:#33B49D"/></linearGradient><path d="M256,469.3338623c-117.6314697,0-213.3333435-95.7018738-213.3333435-213.3333435    c0-117.6309204,95.7018661-213.333313,213.3333435-213.333313c117.636261,0,213.3333435,95.7024002,213.3333435,213.333313    C469.3333435,373.6319885,373.636261,469.3338623,256,469.3338623z" fill="url(#SVGID_2_)"/></g><g><path d="M199.2995148,228.2960052c-0.933548-1.9557343-1.4990387-4.1184082-1.4990387-6.4293365    c0-8.2837372,6.7155304-15,15-15c8.2840576,0,15,6.7162628,15,15c0,2.6954651-0.7679901,5.1877289-2.0119934,7.3728027    l56.1990356,64.9840088c1.6924744-0.6613464,3.5194702-1.0570679,5.4464417-1.0570679    c4.4595337,0,8.4199219,1.9850464,11.1676331,5.0735779L384,263.7327881v-91.0069275H144v110.8693542L199.2995148,228.2960052z" opacity="0.3"/><path d="M302.3669434,307.5050659c0.0106506,0.2245483,0.0671997,0.4346619,0.0671997,0.6613464    c0,8.28479-6.7157288,15-15.0001831,15c-8.2839966,0-15-6.71521-15-15c0-2.6933594,0.7675476-5.1856079,2.0105591-7.3706665    l-56.1970062-64.986145c-1.6925201,0.6613312-3.519989,1.0570679-5.4470367,1.0570679    c-2.3114624,0-4.4754639-0.5669403-6.4309235-1.5008087L144,297.7354736v57.5391846h240v-80.7541199L302.3669434,307.5050659z" opacity="0.3"/></g><g><path d="M191.2995148,220.2960052c-0.933548-1.9557343-1.4990387-4.1184082-1.4990387-6.4293365    c0-8.2837372,6.7155304-15,15-15c8.2840576,0,15,6.7162628,15,15c0,2.6954651-0.7679901,5.1877289-2.0119934,7.3728027    l56.1990356,64.9840088c1.6924744-0.6613464,3.5194702-1.0570679,5.4464417-1.0570679    c4.4595337,0,8.4200134,1.9850464,11.1675415,5.0735779L376,255.7328033v-91.0069427H136v110.8693542L191.2995148,220.2960052z" fill="#FFFFFF"/><path d="M294.3669434,299.5050659c0.0106506,0.2245483,0.0671997,0.4346619,0.0671997,0.6613464    c0,8.28479-6.7156372,15-15.0001831,15c-8.2839966,0-15-6.71521-15-15c0-2.6933594,0.7675476-5.1856079,2.0105591-7.3706665    l-56.1970062-64.986145c-1.6925201,0.6613312-3.519989,1.0570679-5.4470367,1.0570679    c-2.3114624,0-4.4754639-0.5669403-6.4309235-1.5008087L136,289.7354736v57.5391846h240v-80.7541199L294.3669434,299.5050659z" fill="#FFFFFF"/></g></g></svg>